<svg aria-roledescription="er" role="graphics-document document" viewBox="0 0 173.02642822265625 576" style="max-width: 173.026px; background-color: white;" xmlns:xlink="http://www.w3.org/1999/xlink" xmlns="http://www.w3.org/2000/svg" width="100%" id="mermaid-0"><style>#mermaid-0{font-family:"trebuchet ms",verdana,arial,sans-serif;font-size:16px;fill:#000000;}#mermaid-0 .error-icon{fill:#552222;}#mermaid-0 .error-text{fill:#552222;stroke:#552222;}#mermaid-0 .edge-thickness-normal{stroke-width:2px;}#mermaid-0 .edge-thickness-thick{stroke-width:3.5px;}#mermaid-0 .edge-pattern-solid{stroke-dasharray:0;}#mermaid-0 .edge-pattern-dashed{stroke-dasharray:3;}#mermaid-0 .edge-pattern-dotted{stroke-dasharray:2;}#mermaid-0 .marker{fill:#000000;stroke:#000000;}#mermaid-0 .marker.cross{stroke:#000000;}#mermaid-0 svg{font-family:"trebuchet ms",verdana,arial,sans-serif;font-size:16px;}#mermaid-0 .entityBox{fill:#cde498;stroke:#13540c;}#mermaid-0 .attributeBoxOdd{fill:#ffffff;stroke:#13540c;}#mermaid-0 .attributeBoxEven{fill:#f2f2f2;stroke:#13540c;}#mermaid-0 .relationshipLabelBox{fill:hsl(78.1578947368, 58.4615384615%, 84.5098039216%);opacity:0.7;background-color:hsl(78.1578947368, 58.4615384615%, 84.5098039216%);}#mermaid-0 .relationshipLabelBox rect{opacity:0.5;}#mermaid-0 .relationshipLine{stroke:#000000;}#mermaid-0 .entityTitleText{text-anchor:middle;font-size:18px;fill:#000000;}#mermaid-0 :root{--mermaid-font-family:"trebuchet ms",verdana,arial,sans-serif;}</style><g/><defs><marker orient="auto" markerHeight="18" markerWidth="18" refY="9" refX="0" id="ONLY_ONE_START"><path d="M9,0 L9,18 M15,0 L15,18" fill="none" stroke="gray"/></marker></defs><defs><marker orient="auto" markerHeight="18" markerWidth="18" refY="9" refX="18" id="ONLY_ONE_END"><path d="M3,0 L3,18 M9,0 L9,18" fill="none" stroke="gray"/></marker></defs><defs><marker orient="auto" markerHeight="18" markerWidth="30" refY="9" refX="0" id="ZERO_OR_ONE_START"><circle r="6" cy="9" cx="21" fill="white" stroke="gray"/><path d="M9,0 L9,18" fill="none" stroke="gray"/></marker></defs><defs><marker orient="auto" markerHeight="18" markerWidth="30" refY="9" refX="30" id="ZERO_OR_ONE_END"><circle r="6" cy="9" cx="9" fill="white" stroke="gray"/><path d="M21,0 L21,18" fill="none" stroke="gray"/></marker></defs><defs><marker orient="auto" markerHeight="36" markerWidth="45" refY="18" refX="18" id="ONE_OR_MORE_START"><path d="M0,18 Q 18,0 36,18 Q 18,36 0,18 M42,9 L42,27" fill="none" stroke="gray"/></marker></defs><defs><marker orient="auto" markerHeight="36" markerWidth="45" refY="18" refX="27" id="ONE_OR_MORE_END"><path d="M3,9 L3,27 M9,18 Q27,0 45,18 Q27,36 9,18" fill="none" stroke="gray"/></marker></defs><defs><marker orient="auto" markerHeight="36" markerWidth="57" refY="18" refX="18" id="ZERO_OR_MORE_START"><circle r="6" cy="18" cx="48" fill="white" stroke="gray"/><path d="M0,18 Q18,0 36,18 Q18,36 0,18" fill="none" stroke="gray"/></marker></defs><defs><marker orient="auto" markerHeight="36" markerWidth="57" refY="18" refX="39" id="ZERO_OR_MORE_END"><circle r="6" cy="18" cx="9" fill="white" stroke="gray"/><path d="M21,18 Q39,0 57,18 Q39,36 21,18" fill="none" stroke="gray"/></marker></defs><path style="stroke: gray; fill: none;" marker-start="url(#ZERO_OR_MORE_START)" marker-end="url(#ONLY_ONE_END)" d="M86.51321411132812,366L86.51321411132812,374.3333333333333C86.51321411132812,382.6666666666667,86.51321411132812,399.3333333333333,86.51321411132812,416C86.51321411132812,432.6666666666667,86.51321411132812,449.3333333333333,86.51321411132812,457.6666666666667L86.51321411132812,466" class="er relationshipLine"/><path style="stroke: gray; fill: none;" marker-start="url(#ZERO_OR_ONE_START)" marker-end="url(#ONLY_ONE_END)" d="M86.51321411132812,110L86.51321411132812,118.33333333333333C86.51321411132812,126.66666666666667,86.51321411132812,143.33333333333334,86.51321411132812,160C86.51321411132812,176.66666666666666,86.51321411132812,193.33333333333334,86.51321411132812,201.66666666666666L86.51321411132812,210" class="er relationshipLine"/><g transform="translate(20,466 )" id="entity-edificios-5210e23c-fb85-5302-9f8c-b56d904fdba4"><rect height="90" width="133.02642822265625" y="0" x="0" class="er entityBox"/><text style="dominant-baseline: middle; text-anchor: middle; font-size: 12px;" transform="translate(66.51321411132812,12)" y="0" x="0" id="text-entity-edificios-5210e23c-fb85-5302-9f8c-b56d904fdba4" class="er entityLabel">edificios</text><rect height="22" width="54.095550537109375" y="24" x="0" class="er attributeBoxOdd"/><text style="dominant-baseline: middle; font-size: 10.2px;" transform="translate(5,35)" y="0" x="0" id="text-entity-edificios-5210e23c-fb85-5302-9f8c-b56d904fdba4-attr-1-type" class="er entityLabel">Int</text><rect height="22" width="56.243194580078125" y="24" x="54.095550537109375" class="er attributeBoxOdd"/><text style="dominant-baseline: middle; font-size: 10.2px;" transform="translate(59.095550537109375,35)" y="0" x="0" id="text-entity-edificios-5210e23c-fb85-5302-9f8c-b56d904fdba4-attr-1-name" class="er entityLabel">id</text><rect height="22" width="22.68768310546875" y="24" x="110.3387451171875" class="er attributeBoxOdd"/><text style="dominant-baseline: middle; font-size: 10.2px;" transform="translate(115.3387451171875,35)" y="0" x="0" id="text-entity-edificios-5210e23c-fb85-5302-9f8c-b56d904fdba4-attr-1-key" class="er entityLabel">PK</text><rect height="22" width="54.095550537109375" y="46" x="0" class="er attributeBoxEven"/><text style="dominant-baseline: middle; font-size: 10.2px;" transform="translate(5,57)" y="0" x="0" id="text-entity-edificios-5210e23c-fb85-5302-9f8c-b56d904fdba4-attr-2-type" class="er entityLabel">String</text><rect height="22" width="56.243194580078125" y="46" x="54.095550537109375" class="er attributeBoxEven"/><text style="dominant-baseline: middle; font-size: 10.2px;" transform="translate(59.095550537109375,57)" y="0" x="0" id="text-entity-edificios-5210e23c-fb85-5302-9f8c-b56d904fdba4-attr-2-name" class="er entityLabel">nome</text><rect height="22" width="22.68768310546875" y="46" x="110.3387451171875" class="er attributeBoxEven"/><text style="dominant-baseline: middle; font-size: 10.2px;" transform="translate(115.3387451171875,57)" y="0" x="0" id="text-entity-edificios-5210e23c-fb85-5302-9f8c-b56d904fdba4-attr-2-key" class="er entityLabel"/><rect height="22" width="54.095550537109375" y="68" x="0" class="er attributeBoxOdd"/><text style="dominant-baseline: middle; font-size: 10.2px;" transform="translate(5,79)" y="0" x="0" id="text-entity-edificios-5210e23c-fb85-5302-9f8c-b56d904fdba4-attr-3-type" class="er entityLabel">DateTime</text><rect height="22" width="56.243194580078125" y="68" x="54.095550537109375" class="er attributeBoxOdd"/><text style="dominant-baseline: middle; font-size: 10.2px;" transform="translate(59.095550537109375,79)" y="0" x="0" id="text-entity-edificios-5210e23c-fb85-5302-9f8c-b56d904fdba4-attr-3-name" class="er entityLabel">createdAt</text><rect height="22" width="22.68768310546875" y="68" x="110.3387451171875" class="er attributeBoxOdd"/><text style="dominant-baseline: middle; font-size: 10.2px;" transform="translate(115.3387451171875,79)" y="0" x="0" id="text-entity-edificios-5210e23c-fb85-5302-9f8c-b56d904fdba4-attr-3-key" class="er entityLabel"/></g><g transform="translate(23.875747680664062,210 )" id="entity-apartamentos-c41dcd2d-5ee1-5c34-9c1b-cc426cae25f1"><rect height="156" width="125.27493286132812" y="0" x="0" class="er entityBox"/><text style="dominant-baseline: middle; text-anchor: middle; font-size: 12px;" transform="translate(62.63746643066406,12)" y="0" x="0" id="text-entity-apartamentos-c41dcd2d-5ee1-5c34-9c1b-cc426cae25f1" class="er entityLabel">apartamentos</text><rect height="22" width="46.649749755859375" y="24" x="0" class="er attributeBoxOdd"/><text style="dominant-baseline: middle; font-size: 10.2px;" transform="translate(5,35)" y="0" x="0" id="text-entity-apartamentos-c41dcd2d-5ee1-5c34-9c1b-cc426cae25f1-attr-1-type" class="er entityLabel">Int</text><rect height="22" width="55.9375" y="24" x="46.649749755859375" class="er attributeBoxOdd"/><text style="dominant-baseline: middle; font-size: 10.2px;" transform="translate(51.649749755859375,35)" y="0" x="0" id="text-entity-apartamentos-c41dcd2d-5ee1-5c34-9c1b-cc426cae25f1-attr-1-name" class="er entityLabel">id</text><rect height="22" width="22.68768310546875" y="24" x="102.58724975585938" class="er attributeBoxOdd"/><text style="dominant-baseline: middle; font-size: 10.2px;" transform="translate(107.58724975585938,35)" y="0" x="0" id="text-entity-apartamentos-c41dcd2d-5ee1-5c34-9c1b-cc426cae25f1-attr-1-key" class="er entityLabel">PK</text><rect height="22" width="46.649749755859375" y="46" x="0" class="er attributeBoxEven"/><text style="dominant-baseline: middle; font-size: 10.2px;" transform="translate(5,57)" y="0" x="0" id="text-entity-apartamentos-c41dcd2d-5ee1-5c34-9c1b-cc426cae25f1-attr-2-type" class="er entityLabel">Int</text><rect height="22" width="55.9375" y="46" x="46.649749755859375" class="er attributeBoxEven"/><text style="dominant-baseline: middle; font-size: 10.2px;" transform="translate(51.649749755859375,57)" y="0" x="0" id="text-entity-apartamentos-c41dcd2d-5ee1-5c34-9c1b-cc426cae25f1-attr-2-name" class="er entityLabel">numero</text><rect height="22" width="22.68768310546875" y="46" x="102.58724975585938" class="er attributeBoxEven"/><text style="dominant-baseline: middle; font-size: 10.2px;" transform="translate(107.58724975585938,57)" y="0" x="0" id="text-entity-apartamentos-c41dcd2d-5ee1-5c34-9c1b-cc426cae25f1-attr-2-key" class="er entityLabel"/><rect height="22" width="46.649749755859375" y="68" x="0" class="er attributeBoxOdd"/><text style="dominant-baseline: middle; font-size: 10.2px;" transform="translate(5,79)" y="0" x="0" id="text-entity-apartamentos-c41dcd2d-5ee1-5c34-9c1b-cc426cae25f1-attr-3-type" class="er entityLabel">String</text><rect height="22" width="55.9375" y="68" x="46.649749755859375" class="er attributeBoxOdd"/><text style="dominant-baseline: middle; font-size: 10.2px;" transform="translate(51.649749755859375,79)" y="0" x="0" id="text-entity-apartamentos-c41dcd2d-5ee1-5c34-9c1b-cc426cae25f1-attr-3-name" class="er entityLabel">aluguel</text><rect height="22" width="22.68768310546875" y="68" x="102.58724975585938" class="er attributeBoxOdd"/><text style="dominant-baseline: middle; font-size: 10.2px;" transform="translate(107.58724975585938,79)" y="0" x="0" id="text-entity-apartamentos-c41dcd2d-5ee1-5c34-9c1b-cc426cae25f1-attr-3-key" class="er entityLabel"/><rect height="22" width="46.649749755859375" y="90" x="0" class="er attributeBoxEven"/><text style="dominant-baseline: middle; font-size: 10.2px;" transform="translate(5,101)" y="0" x="0" id="text-entity-apartamentos-c41dcd2d-5ee1-5c34-9c1b-cc426cae25f1-attr-4-type" class="er entityLabel">String</text><rect height="22" width="55.9375" y="90" x="46.649749755859375" class="er attributeBoxEven"/><text style="dominant-baseline: middle; font-size: 10.2px;" transform="translate(51.649749755859375,101)" y="0" x="0" id="text-entity-apartamentos-c41dcd2d-5ee1-5c34-9c1b-cc426cae25f1-attr-4-name" class="er entityLabel">locatario</text><rect height="22" width="22.68768310546875" y="90" x="102.58724975585938" class="er attributeBoxEven"/><text style="dominant-baseline: middle; font-size: 10.2px;" transform="translate(107.58724975585938,101)" y="0" x="0" id="text-entity-apartamentos-c41dcd2d-5ee1-5c34-9c1b-cc426cae25f1-attr-4-key" class="er entityLabel"/><rect height="22" width="46.649749755859375" y="112" x="0" class="er attributeBoxOdd"/><text style="dominant-baseline: middle; font-size: 10.2px;" transform="translate(5,123)" y="0" x="0" id="text-entity-apartamentos-c41dcd2d-5ee1-5c34-9c1b-cc426cae25f1-attr-5-type" class="er entityLabel">String</text><rect height="22" width="55.9375" y="112" x="46.649749755859375" class="er attributeBoxOdd"/><text style="dominant-baseline: middle; font-size: 10.2px;" transform="translate(51.649749755859375,123)" y="0" x="0" id="text-entity-apartamentos-c41dcd2d-5ee1-5c34-9c1b-cc426cae25f1-attr-5-name" class="er entityLabel">locador</text><rect height="22" width="22.68768310546875" y="112" x="102.58724975585938" class="er attributeBoxOdd"/><text style="dominant-baseline: middle; font-size: 10.2px;" transform="translate(107.58724975585938,123)" y="0" x="0" id="text-entity-apartamentos-c41dcd2d-5ee1-5c34-9c1b-cc426cae25f1-attr-5-key" class="er entityLabel"/><rect height="22" width="46.649749755859375" y="134" x="0" class="er attributeBoxEven"/><text style="dominant-baseline: middle; font-size: 10.2px;" transform="translate(5,145)" y="0" x="0" id="text-entity-apartamentos-c41dcd2d-5ee1-5c34-9c1b-cc426cae25f1-attr-6-type" class="er entityLabel">Boolean</text><rect height="22" width="55.9375" y="134" x="46.649749755859375" class="er attributeBoxEven"/><text style="dominant-baseline: middle; font-size: 10.2px;" transform="translate(51.649749755859375,145)" y="0" x="0" id="text-entity-apartamentos-c41dcd2d-5ee1-5c34-9c1b-cc426cae25f1-attr-6-name" class="er entityLabel">disponivel</text><rect height="22" width="22.68768310546875" y="134" x="102.58724975585938" class="er attributeBoxEven"/><text style="dominant-baseline: middle; font-size: 10.2px;" transform="translate(107.58724975585938,145)" y="0" x="0" id="text-entity-apartamentos-c41dcd2d-5ee1-5c34-9c1b-cc426cae25f1-attr-6-key" class="er entityLabel"/></g><g transform="translate(36.513214111328125,20 )" id="entity-locatario-2beecf73-5220-5d6b-964a-26ec7bf99f01"><rect height="90" width="100" y="0" x="0" class="er entityBox"/><text style="dominant-baseline: middle; text-anchor: middle; font-size: 12px;" transform="translate(50,12)" y="0" x="0" id="text-entity-locatario-2beecf73-5220-5d6b-964a-26ec7bf99f01" class="er entityLabel">locatario</text><rect height="22" width="38.86365763346354" y="24" x="0" class="er attributeBoxOdd"/><text style="dominant-baseline: middle; font-size: 10.2px;" transform="translate(5,35)" y="0" x="0" id="text-entity-locatario-2beecf73-5220-5d6b-964a-26ec7bf99f01-attr-1-type" class="er entityLabel">Int</text><rect height="22" width="36.981058756510414" y="24" x="38.86365763346354" class="er attributeBoxOdd"/><text style="dominant-baseline: middle; font-size: 10.2px;" transform="translate(43.86365763346354,35)" y="0" x="0" id="text-entity-locatario-2beecf73-5220-5d6b-964a-26ec7bf99f01-attr-1-name" class="er entityLabel">id</text><rect height="22" width="24.155283610026043" y="24" x="75.84471638997395" class="er attributeBoxOdd"/><text style="dominant-baseline: middle; font-size: 10.2px;" transform="translate(80.84471638997395,35)" y="0" x="0" id="text-entity-locatario-2beecf73-5220-5d6b-964a-26ec7bf99f01-attr-1-key" class="er entityLabel">PK</text><rect height="22" width="38.86365763346354" y="46" x="0" class="er attributeBoxEven"/><text style="dominant-baseline: middle; font-size: 10.2px;" transform="translate(5,57)" y="0" x="0" id="text-entity-locatario-2beecf73-5220-5d6b-964a-26ec7bf99f01-attr-2-type" class="er entityLabel">String</text><rect height="22" width="36.981058756510414" y="46" x="38.86365763346354" class="er attributeBoxEven"/><text style="dominant-baseline: middle; font-size: 10.2px;" transform="translate(43.86365763346354,57)" y="0" x="0" id="text-entity-locatario-2beecf73-5220-5d6b-964a-26ec7bf99f01-attr-2-name" class="er entityLabel">nome</text><rect height="22" width="24.155283610026043" y="46" x="75.84471638997395" class="er attributeBoxEven"/><text style="dominant-baseline: middle; font-size: 10.2px;" transform="translate(80.84471638997395,57)" y="0" x="0" id="text-entity-locatario-2beecf73-5220-5d6b-964a-26ec7bf99f01-attr-2-key" class="er entityLabel"/><rect height="22" width="38.86365763346354" y="68" x="0" class="er attributeBoxOdd"/><text style="dominant-baseline: middle; font-size: 10.2px;" transform="translate(5,79)" y="0" x="0" id="text-entity-locatario-2beecf73-5220-5d6b-964a-26ec7bf99f01-attr-3-type" class="er entityLabel">String</text><rect height="22" width="36.981058756510414" y="68" x="38.86365763346354" class="er attributeBoxOdd"/><text style="dominant-baseline: middle; font-size: 10.2px;" transform="translate(43.86365763346354,79)" y="0" x="0" id="text-entity-locatario-2beecf73-5220-5d6b-964a-26ec7bf99f01-attr-3-name" class="er entityLabel">cpf</text><rect height="22" width="24.155283610026043" y="68" x="75.84471638997395" class="er attributeBoxOdd"/><text style="dominant-baseline: middle; font-size: 10.2px;" transform="translate(80.84471638997395,79)" y="0" x="0" id="text-entity-locatario-2beecf73-5220-5d6b-964a-26ec7bf99f01-attr-3-key" class="er entityLabel"/></g><rect height="14" width="40.873046875" y="409" x="66.07669067382812" class="er relationshipLabelBox"/><text style="text-anchor: middle; dominant-baseline: middle; font-size: 12px;" y="416" x="86.51321411132812" id="rel1" class="er relationshipLabel">edificio</text><rect height="14" width="63.083984375" y="153" x="54.971221923828125" class="er relationshipLabelBox"/><text style="text-anchor: middle; dominant-baseline: middle; font-size: 12px;" y="160" x="86.51321411132812" id="rel2" class="er relationshipLabel">apartament</text></svg>